<svg width="100" height="100" viewBox="0 0 100 100" fill="none" xmlns="http://www.w3.org/2000/svg">
<path d="M87.5 58.3333V79.1667C87.5 81.3768 86.622 83.4964 85.0592 85.0592C83.4964 86.622 81.3768 87.5 79.1667 87.5H20.8333C18.6232 87.5 16.5036 86.622 14.9408 85.0592C13.378 83.4964 12.5 81.3768 12.5 79.1667V20.8333C12.5 18.6232 13.378 16.5036 14.9408 14.9408C16.5036 13.378 18.6232 12.5 20.8333 12.5H41.6667V20.8333H20.8333V79.1667H79.1667V58.3333H87.5Z" fill="black"/>
<path d="M87.5 29.1667H70.8333V12.5H62.5V29.1667H45.8333V37.5H62.5V54.1667H70.8333V37.5H87.5V29.1667Z" fill="black"/>
</svg>
