<svg width="100" height="101" viewBox="0 0 100 101" fill="none" xmlns="http://www.w3.org/2000/svg">
<path d="M87.5 59.0833V79.9167C87.5 82.1268 86.622 84.2464 85.0592 85.8092C83.4964 87.372 81.3768 88.25 79.1667 88.25H20.8333C18.6232 88.25 16.5036 87.372 14.9408 85.8092C13.378 84.2464 12.5 82.1268 12.5 79.9167V21.5833C12.5 19.3732 13.378 17.2536 14.9408 15.6908C16.5036 14.128 18.6232 13.25 20.8333 13.25H41.6667V21.5833H20.8333V79.9167H79.1667V59.0833H87.5Z" fill="white"/>
<path d="M87.5 29.9167H70.8333V13.25H62.5V29.9167H45.8333V38.25H62.5V54.9167H70.8333V38.25H87.5V29.9167Z" fill="white"/>
</svg>
